<?xml version="1.0" standalone="no"?>
<!DOCTYPE svg PUBLIC "-//W3C//DTD SVG 1.1//EN" "http://www.w3.org/Graphics/SVG/1.1/DTD/svg11.dtd" >
<svg xmlns="http://www.w3.org/2000/svg">
<metadata>Generated by IcoMoon</metadata>
<defs>
<font id="icomoon" horiz-adv-x="1024">
<font-face units-per-em="1024" ascent="960" descent="-64" />
<missing-glyph horiz-adv-x="1024" />
<glyph unicode="&#x20;" horiz-adv-x="512" d="" />
<glyph unicode="&#xe900;" glyph-name="add" d="M903.558 569.905h-269.653v269.653c0 66.17-55.637 120.442-121.905 120.442s-121.905-54.223-121.905-120.442v-269.653h-269.653c-66.17 0-120.442-55.637-120.442-121.905s54.223-121.905 120.442-121.905h269.653v-269.653c0-66.17 55.637-120.442 121.905-120.442s121.905 54.223 121.905 120.442v269.653h269.653c66.219 0 120.442 55.637 120.442 121.905s-54.223 121.905-120.442 121.905z" />
<glyph unicode="&#xe901;" glyph-name="volume-icon" horiz-adv-x="887" d="M625.801 960c-0.226 0.003-0.492 0.005-0.759 0.005-15.276 0-29.129-6.097-39.257-15.99l0.011 0.011-296.004-280.439h-232.926c-0.226 0.003-0.492 0.005-0.759 0.005-15.276 0-29.129-6.097-39.257-15.99l0.011 0.011c-10.369-9.291-16.863-22.725-16.863-37.674 0-0.099 0-0.198 0.001-0.297v0.015-323.311c0-0.063 0-0.139 0-0.214 0-14.95 6.494-28.383 16.815-37.632l0.048-0.042c11.332-10.718 24.576-16.043 40.004-16.043h232.926l296.004-280.439c11.196-10.65 24.576-15.974 40.004-15.974 0.209-0.003 0.456-0.004 0.704-0.004 15.294 0 29.163 6.096 39.312 15.99l-0.012-0.011c10.368 9.291 16.862 22.724 16.862 37.674 0 0.075 0 0.15 0 0.225v-0.012 916.207c0.001 0.084 0.001 0.183 0.001 0.282 0 14.95-6.494 28.383-16.815 37.632l-0.048 0.042c-10.137 9.883-24.007 15.979-39.301 15.979-0.247 0-0.495-0.002-0.741-0.005h0.037zM863.642 549.035c-15.838 31.266-36.796 53.248-62.942 66.082-3.727 2.24-8.225 3.565-13.032 3.565-0.314 0-0.628-0.006-0.939-0.017l0.045 0.001c-10.379-0.142-19.533-5.266-25.195-13.083l-0.063-0.092c-6.613-8.379-10.608-19.091-10.608-30.737 0-0.57 0.010-1.138 0.029-1.704l-0.002 0.082c0-9.899 2.253-18.364 6.69-25.259 4.506-6.827 9.899-12.766 16.247-17.749s12.698-10.445 19.046-16.384c6.349-5.871 11.742-14.336 16.247-25.259 4.437-10.854 6.69-24.371 6.69-40.482s-2.253-29.628-6.69-40.55c-3.756-9.862-9.28-18.282-16.248-25.259l0.001 0.001c-5.812-5.452-12.015-10.812-18.433-15.914l-0.613-0.47c-6.349-4.915-11.742-10.854-16.247-17.749-4.216-6.748-6.716-14.944-6.716-23.724 0-0.54 0.009-1.077 0.028-1.612l-0.002 0.078c-0.014-0.439-0.022-0.955-0.022-1.472 0-11.682 4.019-22.425 10.751-30.921l-0.079 0.104c5.713-7.892 14.837-13.010 25.165-13.175h0.026c5.598 0 10.24 1.161 13.926 3.55 26.146 13.244 47.104 35.499 62.942 66.492 15.906 31.061 23.825 64.58 23.825 100.625 0.003 0.395 0.004 0.863 0.004 1.331 0 36.375-8.808 70.694-24.408 100.938l0.579-1.234z" />
<glyph unicode="&#xe902;" glyph-name="upgrade-plan" horiz-adv-x="1103" d="M1078.823 495.97c14.724 13.666 23.908 33.125 23.908 54.728 0 8.519-1.428 16.704-4.057 24.329l0.157-0.524c-9.699 27.818-33.954 48.179-63.405 52.102l-0.398 0.043-267.028 37.652c-11.51 1.581-21.099 8.591-26.218 18.32l-0.091 0.191-119.335 234.496c-13.39 25.559-39.73 42.698-70.073 42.698-0.316 0-0.631-0.002-0.946-0.006h0.048c-30.326 0-57.502-16.384-70.971-42.693l-119.335-234.575c-5.21-9.919-14.799-16.93-26.127-18.49l-0.182-0.020-267.028-37.652c-29.849-3.966-54.104-24.327-63.637-51.598l-0.166-0.547c-2.485-7.118-3.92-15.324-3.92-23.865 0-21.613 9.192-41.080 23.88-54.703l0.048-0.044 193.142-182.508c6.507-6.084 10.563-14.72 10.563-24.303 0-1.989-0.175-3.937-0.509-5.829l0.029 0.2-45.529-257.733c-0.789-4.040-1.24-8.685-1.24-13.436 0-18.728 7.013-35.818 18.555-48.787l-0.065 0.074c23.473-27.097 64.591-35.446 97.438-18.668l238.828 121.698c4.735 2.379 10.318 3.772 16.226 3.772s11.492-1.393 16.439-3.869l-0.213 0.096 238.828-121.698c10.715-5.661 23.419-8.984 36.899-8.984 24.156 0 45.82 10.671 60.535 27.556l0.082 0.096c11.481 12.886 18.496 29.969 18.496 48.69 0 4.759-0.453 9.412-1.319 13.919l0.074-0.46-45.686 257.733c-0.299 1.673-0.469 3.6-0.469 5.566 0 9.616 4.083 18.278 10.61 24.348l0.020 0.019 193.142 182.587z" />
<glyph unicode="&#xe903;" glyph-name="user-modal" horiz-adv-x="1843" d="M1810.022 940.544c-11.536 12.013-27.732 19.477-45.67 19.477s-34.134-7.464-45.65-19.456l-0.020-0.021-803.226-830.669-804.864 830.669c-11.545 12.077-27.782 19.584-45.773 19.584s-34.228-7.507-45.75-19.56l-0.023-0.024c-11.687-12.22-18.881-28.822-18.881-47.104s7.194-34.884 18.905-47.129l-0.024 0.025 849.101-876.134c11.354-12.115 27.455-19.663 45.318-19.663 0.196 0 0.391 0.001 0.587 0.003h-0.030c17.932 0.226 34.073 7.711 45.655 19.645l0.016 0.016 848.691 875.93c12.453 12.14 20.177 29.080 20.177 47.824 0 18.030-7.147 34.39-18.761 46.403l0.018-0.019z" />
<glyph unicode="&#xe904;" glyph-name="video-icon" d="M913.203 376.115c-23.489 0-42.53-19.041-42.53-42.53v0-258.321c-0.039-29.92-24.283-54.165-54.2-54.204h-677.209c-29.92 0.039-54.165 24.283-54.204 54.2v677.209c0 29.901 24.303 54.204 54.204 54.204h258.321c23.489 0 42.53 19.041 42.53 42.53s-19.041 42.53-42.53 42.53v0h-258.321c-76.8 0-139.264-62.464-139.264-139.264v-677.205c0-76.8 62.464-139.264 139.264-139.264h677.205c76.8 0 139.264 62.464 139.264 139.264v258.321c0 23.489-19.041 42.53-42.53 42.53v0zM1011.712 757.111l-190.601 190.601c-7.584 7.579-18.059 12.266-29.628 12.266s-22.044-4.687-29.628-12.266l-476.501-476.501c-7.587-7.581-12.282-18.056-12.288-29.627v-190.602c0-23.211 18.773-41.916 41.916-41.916h190.601c0.002 0 0.004 0 0.006 0 11.571 0 22.046 4.696 29.621 12.287l476.502 476.502c7.579 7.584 12.266 18.059 12.266 29.628s-4.687 22.044-12.266 29.628v0zM488.243 292.898h-131.413v131.277l434.654 434.654 131.413-131.413-434.654-434.654z" />
<glyph unicode="&#xe905;" glyph-name="twitter-icon1" d="M921.6 960h-819.2c-56.32 0-102.4-46.080-102.4-102.4v-819.2c0-56.32 46.080-102.4 102.4-102.4h819.2c56.32 0 102.4 46.080 102.4 102.4v819.2c0 56.32-46.080 102.4-102.4 102.4zM833.051 604.618c-5.228-230.562-156.51-390.899-386.102-400.977-93.885-4.958-161.684 25.115-224.364 60.2 67.853-10.024 156.564 15.037 203.507 55.080-67.853 5.012-109.568 40.098-130.425 95.232 20.857-5.012 41.715 0 57.398 0-62.626 20.049-104.394 55.134-109.568 135.33 15.629-10.024 36.487-15.037 57.398-15.037-46.996 25.061-78.309 120.293-41.768 180.44 67.853-70.171 151.283-130.317 286.936-140.342-36.487 140.342 161.792 215.525 240.047 120.293 36.487 5.012 62.572 20.049 88.657 30.073-10.402-35.085-31.259-55.134-57.398-75.183 26.085 5.012 52.224 10.024 73.081 20.049-5.228-25.061-31.313-45.11-57.398-65.213z" />
<glyph unicode="&#xe906;" glyph-name="settings-icon" d="M1021.164 504.714c-1.575 14.336-18.353 25.206-32.926 25.206-46.946 0-88.537 27.569-106.023 70.105-17.881 43.717-6.302 94.602 28.672 126.74 5.697 5.218 9.255 12.69 9.255 20.993 0 6.674-2.299 12.812-6.149 17.663l0.045-0.059c-24.234 30.607-50.891 57.489-80.242 81.164l-0.969 0.756c-4.828 3.876-11.029 6.221-17.778 6.221-8.369 0-15.896-3.606-21.113-9.348l-0.021-0.024c-30.562-33.792-85.386-46.316-127.764-28.672-41.144 17.734-69.422 57.941-69.422 104.753 0 2.276 0.067 4.536 0.199 6.779l-0.015-0.31c0.035 0.524 0.054 1.137 0.054 1.754 0 14.542-10.947 26.528-25.050 28.166l-0.132 0.012c-17.607 2.149-37.991 3.376-58.662 3.376-19.933 0-39.6-1.141-58.939-3.36l2.361 0.22c-14.341-1.632-25.38-13.698-25.38-28.342 0-0.338 0.006-0.674 0.018-1.009l-0.001 0.049c0.047-1.224 0.074-2.661 0.074-4.105 0-47.142-28.62-87.6-69.433-104.945l-0.746-0.282c-41.905-17.093-96.335-4.647-126.818 28.908-5.241 5.664-12.713 9.199-21.010 9.199-6.66 0-12.788-2.277-17.648-6.095l0.062 0.047c-30.72-24.025-58.683-51.594-82.865-81.92-3.894-4.834-6.251-11.050-6.251-17.816 0-8.309 3.554-15.787 9.224-20.999l0.020-0.019c35.682-32.295 47.262-83.653 28.672-127.842-17.644-42.063-61.44-69.238-111.458-69.238-0.553 0.039-1.198 0.062-1.849 0.062-14.463 0-26.347-11.042-27.681-25.156l-0.009-0.111c-2.205-17.863-3.463-38.541-3.463-59.513 0-19.994 1.144-39.721 3.369-59.119l-0.221 2.369c1.575-14.494 18.905-25.206 33.556-25.206 0.387 0.005 0.844 0.008 1.302 0.008 46.82 0 86.949-28.646 103.818-69.367l0.273-0.745c17.881-43.717 6.38-94.602-28.672-126.74-5.67-5.215-9.21-12.67-9.21-20.951 0-6.693 2.312-12.846 6.182-17.704l-0.044 0.058c23.788-30.326 51.121-57.895 81.054-81.92 11.737-9.452 28.751-8.192 38.991 3.072 30.641 33.871 85.465 46.474 127.606 28.672 44.268-18.511 72.074-63.173 69.317-111.143-0.031-0.501-0.049-1.086-0.049-1.675 0-14.584 10.979-26.604 25.123-28.245l0.132-0.012c17.71-2.184 38.211-3.431 59.003-3.431 19.813 0 39.362 1.132 58.585 3.334l-2.348-0.219c14.306 1.668 25.304 13.716 25.304 28.333 0 0.368-0.007 0.735-0.021 1.1l0.002-0.053c-0.046 1.208-0.072 2.628-0.072 4.053 0 47.113 28.624 87.541 69.431 104.84l0.746 0.281c42.142 17.25 96.414 4.647 126.818-28.83 10.24-11.028 26.939-12.367 38.676-3.23 30.976 24.434 58.168 51.326 82.11 80.954l0.756 0.966c3.934 4.839 6.316 11.076 6.316 17.87 0 8.329-3.581 15.821-9.287 21.022l-0.023 0.020c-23.034 20.842-37.444 50.846-37.444 84.216 0 15.715 3.196 30.683 8.973 44.291l-0.28-0.743c17.918 41.011 58.015 69.206 104.729 69.474h0.035l6.302-0.158c0.506-0.032 1.097-0.050 1.693-0.050 14.572 0 26.591 10.931 28.305 25.041l0.014 0.137c4.569 38.439 4.569 77.666 0.236 116.421zM513.024 275.81c-94.356 0.045-170.84 76.501-170.929 170.842v0.008c0 94.208 76.721 170.85 170.929 170.85s170.85-76.642 170.85-170.929c-0.135-94.316-76.601-170.727-170.925-170.772h-0.004z" />
<glyph unicode="&#xe907;" glyph-name="shape" horiz-adv-x="1385" d="M693.128 46.231c0-22.709-14.095-43.369-36.141-53.007-7.875-3.554-17.073-5.625-26.755-5.625-15.165 0-29.144 5.081-40.326 13.634l0.16-0.117-343.944 265.216h-183.236c-34.696 0-62.886 26.202-62.886 58.488v233.231c0 32.346 28.19 58.609 62.886 58.609h183.236l343.944 265.216c18.793 14.456 44.875 17.528 66.861 7.831 22.106-9.638 36.201-30.238 36.201-52.947v-790.528zM934.912 137.668l-4.518-0.181c-16.625 0-32.648 6.144-44.514 17.167l-8.433 7.831c-11.321 10.208-18.406 24.927-18.406 41.3 0 13.295 4.671 25.498 12.462 35.059l-0.080-0.101c44.742 54.847 71.882 125.59 71.981 202.67v0.022c0 79.029-28.25 153.178-81.679 214.438-8.751 9.773-14.101 22.751-14.101 36.978 0 16.388 7.098 31.118 18.387 41.283l0.050 0.044 8.433 7.831c12.529 11.686 29.395 18.071 47.586 17.047 17.769-0.843 34.334-8.614 45.598-21.444 74.089-84.329 113.242-186.79 113.242-296.177 0-101.918-34.575-198.897-100.111-280.456-10.963-13.553-27.708-22.106-45.899-23.311zM1195.008-43.219c-11.875-12.799-28.786-20.783-47.562-20.783-0.178 0-0.356 0.001-0.533 0.002h0.027c-16.685 0-32.648 6.144-44.514 17.167l-8.252 7.65c-11.322 10.218-18.406 24.945-18.406 41.327 0 14.596 5.625 27.879 14.825 37.798l-0.033-0.036c101.436 112.279 157.335 254.856 157.335 401.528 0 152.576-59.874 299.369-168.478 413.515-9.782 10.012-15.817 23.721-15.817 38.84 0 16.353 7.060 31.057 18.299 41.23l0.048 0.042 8.252 7.71c12.228 11.445 28.13 17.709 46.381 17.167 17.288-0.422 33.732-7.529 45.176-19.576 131.373-137.577 203.656-314.79 203.656-498.989 0-177.212-67.584-349.365-190.344-484.653z" />
<glyph unicode="&#xe908;" glyph-name="arrow-turtorial" horiz-adv-x="1170" d="M1104.457 544.549l1.902-0.293h-783.067l246.053 259.95c11.6 12.365 18.726 29.047 18.726 47.394 0 0.155-0.001 0.31-0.002 0.465v-0.024c0.002 0.191 0.003 0.417 0.003 0.643 0 18.33-7.127 34.994-18.761 47.375l0.034-0.036-38.181 40.229c-11.328 12.135-27.418 19.699-45.275 19.699s-33.948-7.564-45.242-19.663l-0.033-0.036-421.888-444.27c-11.599-12.281-18.729-28.891-18.729-47.166 0-0.287 0.002-0.573 0.005-0.859v0.043c0-18.139 6.583-35.109 18.725-47.835l421.888-444.562c11.328-12.135 27.418-19.699 45.275-19.699s33.948 7.564 45.242 19.663l0.033 0.036 38.181 40.375c11.605 12.283 18.74 28.897 18.74 47.177s-7.134 34.895-18.77 47.21l0.031-0.033-248.832 261.413h784.823c35.255 0 64.951 32.037 64.951 69.193v57.051c0 0.002 0 0.004 0 0.006 0 36.532-29.367 66.205-65.782 66.7l-0.047 0.001z" />
<glyph unicode="&#xe909;" glyph-name="published-icon" d="M219.429 960h585.143c121.187 0 219.429-98.242 219.429-219.429v0-585.143c0-121.187-98.242-219.429-219.429-219.429v0h-585.143c-121.187 0-219.429 98.242-219.429 219.429v0 585.143c0 121.187 98.242 219.429 219.429 219.429v0zM500.297 596.773l-182.565-255.342c-4.599-5.661-7.384-12.957-7.384-20.903 0-6.178 1.683-11.962 4.616-16.92l-0.085 0.155c5.299-11.885 17.009-20.020 30.62-20.020 0.653 0 1.301 0.019 1.945 0.056l-0.089-0.004h365.056c0.554-0.033 1.203-0.052 1.856-0.052 13.611 0 25.321 8.135 30.535 19.807l0.085 0.212c2.839 4.791 4.516 10.559 4.516 16.72 0 7.97-2.808 15.285-7.489 21.008l0.047-0.059-182.418 255.342c-6.248 9.321-16.741 15.374-28.647 15.374-0.343 0-0.685-0.005-1.026-0.015l0.050 0.001c-0.312 0.010-0.679 0.016-1.047 0.016-11.908 0-22.401-6.054-28.57-15.252l-0.078-0.124z" />
<glyph unicode="&#xe90a;" glyph-name="settings-icon2" d="M1021.164 504.714c-1.575 14.336-18.353 25.206-32.926 25.206-46.946 0-88.537 27.569-106.023 70.105-17.881 43.717-6.302 94.602 28.672 126.74 5.697 5.218 9.255 12.69 9.255 20.993 0 6.674-2.299 12.812-6.149 17.663l0.045-0.059c-24.234 30.607-50.891 57.489-80.242 81.164l-0.969 0.756c-4.828 3.876-11.029 6.221-17.778 6.221-8.369 0-15.896-3.606-21.113-9.348l-0.021-0.024c-30.562-33.792-85.386-46.316-127.764-28.672-41.144 17.734-69.422 57.941-69.422 104.753 0 2.276 0.067 4.536 0.199 6.779l-0.015-0.31c0.035 0.524 0.054 1.137 0.054 1.754 0 14.542-10.947 26.528-25.050 28.166l-0.132 0.012c-17.607 2.149-37.991 3.376-58.662 3.376-19.933 0-39.6-1.141-58.939-3.36l2.361 0.22c-14.341-1.632-25.38-13.698-25.38-28.342 0-0.338 0.006-0.674 0.018-1.009l-0.001 0.049c0.047-1.224 0.074-2.661 0.074-4.105 0-47.142-28.62-87.6-69.433-104.945l-0.746-0.282c-41.905-17.093-96.335-4.647-126.818 28.908-5.241 5.664-12.713 9.199-21.010 9.199-6.66 0-12.788-2.277-17.648-6.095l0.062 0.047c-30.72-24.025-58.683-51.594-82.865-81.92-3.894-4.834-6.251-11.050-6.251-17.816 0-8.309 3.554-15.787 9.224-20.999l0.020-0.019c35.682-32.295 47.262-83.653 28.672-127.842-17.644-42.063-61.44-69.238-111.458-69.238-0.553 0.039-1.198 0.062-1.849 0.062-14.463 0-26.347-11.042-27.681-25.156l-0.009-0.111c-2.205-17.863-3.463-38.541-3.463-59.513 0-19.994 1.144-39.721 3.369-59.119l-0.221 2.369c1.575-14.494 18.905-25.206 33.556-25.206 0.387 0.005 0.844 0.008 1.302 0.008 46.82 0 86.949-28.646 103.818-69.367l0.273-0.745c17.881-43.717 6.38-94.602-28.672-126.74-5.67-5.215-9.21-12.67-9.21-20.951 0-6.693 2.312-12.846 6.182-17.704l-0.044 0.058c23.788-30.326 51.121-57.895 81.054-81.92 11.737-9.452 28.751-8.192 38.991 3.072 30.641 33.871 85.465 46.474 127.606 28.672 44.268-18.511 72.074-63.173 69.317-111.143-0.031-0.501-0.049-1.086-0.049-1.675 0-14.584 10.979-26.604 25.123-28.245l0.132-0.012c17.71-2.184 38.211-3.431 59.003-3.431 19.813 0 39.362 1.132 58.585 3.334l-2.348-0.219c14.306 1.668 25.304 13.716 25.304 28.333 0 0.368-0.007 0.735-0.021 1.1l0.002-0.053c-0.046 1.208-0.072 2.628-0.072 4.053 0 47.113 28.624 87.541 69.431 104.84l0.746 0.281c42.142 17.25 96.414 4.647 126.818-28.83 10.24-11.028 26.939-12.367 38.676-3.23 30.976 24.434 58.168 51.326 82.11 80.954l0.756 0.966c3.934 4.839 6.316 11.076 6.316 17.87 0 8.329-3.581 15.821-9.287 21.022l-0.023 0.020c-23.034 20.842-37.444 50.846-37.444 84.216 0 15.715 3.196 30.683 8.973 44.291l-0.28-0.743c17.918 41.011 58.015 69.206 104.729 69.474h0.035l6.302-0.158c0.506-0.032 1.097-0.050 1.693-0.050 14.572 0 26.591 10.931 28.305 25.041l0.014 0.137c4.569 38.439 4.569 77.666 0.236 116.421zM513.024 275.81c-94.356 0.045-170.84 76.501-170.929 170.842v0.008c0 94.208 76.721 170.85 170.929 170.85s170.85-76.642 170.85-170.929c-0.135-94.316-76.601-170.727-170.925-170.772h-0.004z" />
<glyph unicode="&#xe90b;" glyph-name="shape2" horiz-adv-x="1385" d="M693.128 46.231c0-22.709-14.095-43.369-36.141-53.007-7.875-3.554-17.073-5.625-26.755-5.625-15.165 0-29.144 5.081-40.326 13.634l0.16-0.117-343.944 265.216h-183.236c-34.696 0-62.886 26.202-62.886 58.488v233.231c0 32.346 28.19 58.609 62.886 58.609h183.236l343.944 265.216c18.793 14.456 44.875 17.528 66.861 7.831 22.106-9.638 36.201-30.238 36.201-52.947v-790.528zM934.912 137.668l-4.518-0.181c-16.625 0-32.648 6.144-44.514 17.167l-8.433 7.831c-11.321 10.208-18.406 24.927-18.406 41.3 0 13.295 4.671 25.498 12.462 35.059l-0.080-0.101c44.742 54.847 71.882 125.59 71.981 202.67v0.022c0 79.029-28.25 153.178-81.679 214.438-8.751 9.773-14.101 22.751-14.101 36.978 0 16.388 7.098 31.118 18.387 41.283l0.050 0.044 8.433 7.831c12.529 11.686 29.395 18.071 47.586 17.047 17.769-0.843 34.334-8.614 45.598-21.444 74.089-84.329 113.242-186.79 113.242-296.177 0-101.918-34.575-198.897-100.111-280.456-10.963-13.553-27.708-22.106-45.899-23.311zM1195.008-43.219c-11.875-12.799-28.786-20.783-47.562-20.783-0.178 0-0.356 0.001-0.533 0.002h0.027c-16.685 0-32.648 6.144-44.514 17.167l-8.252 7.65c-11.322 10.218-18.406 24.945-18.406 41.327 0 14.596 5.625 27.879 14.825 37.798l-0.033-0.036c101.436 112.279 157.335 254.856 157.335 401.528 0 152.576-59.874 299.369-168.478 413.515-9.782 10.012-15.817 23.721-15.817 38.84 0 16.353 7.060 31.057 18.299 41.23l0.048 0.042 8.252 7.71c12.228 11.445 28.13 17.709 46.381 17.167 17.288-0.422 33.732-7.529 45.176-19.576 131.373-137.577 203.656-314.79 203.656-498.989 0-177.212-67.584-349.365-190.344-484.653z" />
<glyph unicode="&#xe90c;" glyph-name="minus" horiz-adv-x="5120" d="M0 960h5120v-1024h-5120z" />
<glyph unicode="&#xe90d;" glyph-name="twitter-icon12" d="M921.6 960h-819.2c-56.32 0-102.4-46.080-102.4-102.4v-819.2c0-56.32 46.080-102.4 102.4-102.4h819.2c56.32 0 102.4 46.080 102.4 102.4v819.2c0 56.32-46.080 102.4-102.4 102.4zM833.051 604.618c-5.228-230.562-156.51-390.899-386.102-400.977-93.885-4.958-161.684 25.115-224.364 60.2 67.853-10.024 156.564 15.037 203.507 55.080-67.853 5.012-109.568 40.098-130.425 95.232 20.857-5.012 41.715 0 57.398 0-62.626 20.049-104.394 55.134-109.568 135.33 15.629-10.024 36.487-15.037 57.398-15.037-46.996 25.061-78.309 120.293-41.768 180.44 67.853-70.171 151.283-130.317 286.936-140.342-36.487 140.342 161.792 215.525 240.047 120.293 36.487 5.012 62.572 20.049 88.657 30.073-10.402-35.085-31.259-55.134-57.398-75.183 26.085 5.012 52.224 10.024 73.081 20.049-5.228-25.061-31.313-45.11-57.398-65.213z" />
<glyph unicode="&#xe90e;" glyph-name="add2" d="M903.558 569.905h-269.653v269.653c0 66.17-55.637 120.442-121.905 120.442s-121.905-54.223-121.905-120.442v-269.653h-269.653c-66.17 0-120.442-55.637-120.442-121.905s54.223-121.905 120.442-121.905h269.653v-269.653c0-66.17 55.637-120.442 121.905-120.442s121.905 54.223 121.905 120.442v269.653h269.653c66.219 0 120.442 55.637 120.442 121.905s-54.223 121.905-120.442 121.905z" />
<glyph unicode="&#xe90f;" glyph-name="help" d="M512.488 636.318c-34.523 11.508-74.801 0-103.619-23.016-28.77-23.064-46.080-57.588-46.080-97.914 0-17.262 11.508-28.77 28.77-28.77 17.31 0 28.818 11.508 28.818 28.77s5.754 40.326 23.064 51.834c17.262 11.508 34.523 17.262 57.539 11.508 28.818-5.754 46.080-28.77 51.883-51.834 5.754-28.77 0-51.834-23.064-69.096-42.132-31.652-69.096-81.523-69.096-137.691 0-0.193 0-0.386 0.001-0.579v0.030c0-17.262 11.508-28.77 28.77-28.77 17.31 0 28.818 11.508 23.064 28.77 0 34.621 23.016 69.144 51.834 92.16 40.277 34.572 57.539 80.603 46.080 126.683-11.557 51.834-51.834 86.406-97.914 97.914zM489.472 915.432c-0.116 0-0.253 0-0.39 0-270.112 0-489.082-218.969-489.082-489.082 0-0.137 0-0.274 0-0.411v0.021c0-0.131 0-0.285 0-0.439 0-270.112 218.969-489.082 489.082-489.082 0.137 0 0.275 0 0.412 0h-0.022c0.131 0 0.285 0 0.439 0 270.112 0 489.082 218.969 489.082 489.082 0 0.155 0 0.309 0 0.464v-0.025c0 0.116 0 0.253 0 0.39 0 270.112-218.969 489.082-489.082 489.082-0.155 0-0.309 0-0.464 0h0.025zM489.472-5.973c-236.105 0-431.884 195.779-431.884 431.933 0 236.105 195.779 431.884 431.884 431.884s431.933-195.779 431.933-431.884c0-236.154-195.828-431.933-431.933-431.933z" />
<glyph unicode="&#xe910;" glyph-name="invalid-name" d="M424.96 540.16v375.467h174.080v-375.467h375.467v-174.080h-375.467v-375.467h-174.080v375.467h-375.467v174.080z" />
<glyph unicode="&#xe911;" glyph-name="pause" horiz-adv-x="783" d="M240.941 78.637c0-78.788-53.911-142.637-120.471-142.637s-120.471 63.849-120.471 142.637v738.726c0 78.788 53.911 142.637 120.471 142.637s120.471-63.849 120.471-142.637v-738.726zM783.059 78.637c0-78.788-53.911-142.637-120.471-142.637s-120.471 63.849-120.471 142.637v738.726c0 78.788 53.971 142.637 120.471 142.637 66.56 0 120.471-63.849 120.471-142.637v-738.726z" />
<glyph unicode="&#xe912;" glyph-name="play" d="M914.974 520.523l-709.752 429.357c-20.962 12.047-46.984 9.999-66.68 9.999-78.667 0-78.306-58.368-78.306-73.126v-877.508c0-12.469-0.361-73.126 78.306-73.126 19.697 0 45.779-1.988 66.741 9.999l709.692 429.357c58.248 33.25 48.188 72.523 48.188 72.523s10.059 39.273-48.188 72.523z" />
<glyph unicode="&#xe913;" glyph-name="project-icon" d="M823.491 303.567v466.456c0 43.691-35.255 79.287-78.702 79.287h-664.235c-43.496 0-78.75-35.547-78.75-79.287v-466.456c0-43.788 35.304-79.336 78.75-79.336h664.235c43.542 0.359 78.702 35.74 78.702 79.333 0 0.001 0 0.002 0 0.003v0zM80.75 279.918c-13.073 0.055-23.65 10.666-23.65 23.747 0 0.051 0 0.103 0 0.154v-0.008 466.359c0 13.166 10.581 23.845 23.65 23.845h664.040c13.019 0 23.65-10.728 23.65-23.845v-466.456c0-13.166-10.63-23.845-23.65-23.845h-664.040zM997.669 125.196v466.456c0 43.788-35.304 79.336-78.702 79.336-0.015 0-0.033 0-0.050 0-15.189 0-27.502-12.313-27.502-27.502 0-0.103 0.001-0.206 0.002-0.308v0.016c0-15.36 12.19-27.697 27.55-27.697 13.019 0 23.65-10.728 23.65-23.845v-466.456c0-13.166-10.63-23.845-23.65-23.845h-664.283c-13.073 0.055-23.65 10.666-23.65 23.747 0 0.051 0 0.103 0 0.154v-0.008c0 15.202-12.324 27.526-27.526 27.526s-27.526-12.324-27.526-27.526v0c0-43.788 35.304-79.336 78.702-79.336h664.283c43.398 0 78.702 35.547 78.702 79.287z" />
<glyph unicode="&#xe914;" glyph-name="add3" d="M903.558 569.905h-269.653v269.653c0 66.17-55.637 120.442-121.905 120.442s-121.905-54.223-121.905-120.442v-269.653h-269.653c-66.17 0-120.442-55.637-120.442-121.905s54.223-121.905 120.442-121.905h269.653v-269.653c0-66.17 55.637-120.442 121.905-120.442s121.905 54.223 121.905 120.442v269.653h269.653c66.219 0 120.442 55.637 120.442 121.905s-54.223 121.905-120.442 121.905z" />
<glyph unicode="&#xe915;" glyph-name="share-icon" horiz-adv-x="1144" d="M950.272 365.839c-8.132 3.494-15.661 1.747-22.468-5.12-11.083-10.24-22.648-18.191-34.635-23.733-7.71-4.216-11.565-10.481-11.565-18.613v-137.336c0-28.25-10.059-52.405-30.118-72.523-20.119-20.058-44.333-30.118-72.523-30.118h-533.926c-28.25 0-52.405 10.059-72.523 30.118-18.589 17.995-30.129 43.176-30.129 71.052 0 0.517 0.004 1.033 0.012 1.549l-0.001-0.078v533.926c0 28.25 9.999 52.405 30.118 72.523s44.273 30.118 72.523 30.118h71.861c2.59 0 6.024 0.904 10.24 2.59 23.974 14.577 52.405 27.407 85.414 38.551 11.083 2.108 16.685 8.915 16.685 20.48 0 0.041 0 0.089 0 0.137 0 5.631-2.356 10.713-6.136 14.312l-0.008 0.008c-3.602 3.753-8.66 6.085-14.262 6.085-0.068 0-0.137 0-0.205-0.001h-163.529c-50.899 0-94.449-18.071-130.59-54.212s-54.212-79.691-54.212-130.59v-533.926c0-50.899 18.071-94.449 54.212-130.59s79.691-54.212 130.59-54.212h533.926c50.899 0 94.449 18.071 130.59 54.212s54.212 79.691 54.212 130.59v166.249c0 8.553-4.518 14.697-13.493 18.552zM776.433 581.12c-146.613-3.614-274.854-84.57-348.582-206.005-6.3-10.444-17.54-17.349-30.402-17.468h-0.017c-3.504 0.008-6.881 0.536-10.063 1.51l0.245-0.065c-15.324 4.999-26.202 19.162-26.202 35.865 0 0.012 0 0.025 0 0.037v-0.002 4.518c0 242.808 184.922 439.898 415.021 445.681v70.596c-0.001 0.132-0.002 0.289-0.002 0.446 0 16.486 8.95 30.881 22.256 38.593l0.214 0.114c5.66 3.184 12.424 5.059 19.627 5.059 8.943 0 17.21-2.891 23.918-7.79l-0.115 0.080 285.756-205.161c10.24-7.349 16.324-19.516 16.384-32.527 0-13.011-6.024-25.178-16.264-32.648l-285.636-207.812c-6.631-4.905-14.969-7.85-23.996-7.85-7.173 0-13.912 1.86-19.76 5.125l0.206-0.106c-13.554 7.818-22.53 22.231-22.53 38.742 0 0.145 0.001 0.289 0.002 0.434v-0.022 70.776z" />
<glyph unicode="&#xe916;" glyph-name="card-icon" horiz-adv-x="1331" d="M1298.637 928.666c-19.659 19.381-46.67 31.35-76.476 31.35-0.654 0-1.306-0.006-1.958-0.017l0.098 0.001h-1109.402c-30.515 0-56.627-10.445-78.336-31.334-20.052-18.477-32.57-44.867-32.57-74.181 0-0.417 0.003-0.833 0.008-1.249l-0.001 0.063v-810.598c0-29.389 10.854-54.477 32.563-75.366s47.821-31.334 78.336-31.334h1109.402c30.515 0 56.627 10.445 78.336 31.334 20.052 18.477 32.57 44.867 32.57 74.181 0 0.417-0.003 0.833-0.008 1.249l0.001-0.063v810.598c0.004 0.352 0.007 0.769 0.007 1.185 0 29.314-12.518 55.705-32.5 74.117l-0.070 0.064zM1228.8 58.88c0-5.53-2.048-10.342-6.451-14.336-3.875-3.799-9.189-6.144-15.050-6.144-0.037 0-0.074 0-0.111 0h-1083.079c-0.092-0.001-0.2-0.002-0.308-0.002-5.862 0-11.176 2.346-15.055 6.15l0.003-0.003c-3.905 3.52-6.349 8.596-6.349 14.242 0 0.033 0 0.066 0 0.099v-0.005 389.12h1126.4v-389.12zM1228.8 652.8h-1126.4v179.2c0 6.963 2.048 12.902 6.451 18.022 3.562 4.589 9.062 7.528 15.249 7.578h1083.093c6.158-0.083 11.614-3.014 15.122-7.533l0.033-0.044c4.301-5.12 6.451-11.059 6.451-18.022v-179.2zM204.8 243.2h204.8v-102.4h-204.8v102.4zM409.6 243.2h307.2v-102.4h-307.2v102.4z" />
<glyph unicode="&#xe917;" glyph-name="cc-icon" horiz-adv-x="1178" d="M1046.733 960h-915.866c-72.294 0-130.867-57.293-130.867-128v-768c0-70.707 58.573-128 130.867-128h915.866c72.294 0 130.867 57.293 130.867 128v768c0 70.707-58.573 128-130.867 128zM523.366 512h-98.099v32h-130.867v-192h130.867v32h98.099v-64c0-35.174-29.082-64-65.434-64h-196.25c-36.352 0-65.434 28.826-65.434 64v256c0 35.174 29.133 64 65.434 64h196.25c36.352 0 65.434-28.826 65.434-64v-64zM981.35 512h-98.15v32h-130.867v-192h130.867v32h98.15v-64c0-35.174-29.133-64-65.434-64h-196.25c-36.352 0-65.434 28.826-65.434 64v256c0 35.174 29.082 64 65.434 64h196.25c36.352 0 65.434-28.826 65.434-64v-64z" />
<glyph unicode="&#xe918;" glyph-name="chart-icon" horiz-adv-x="1654" d="M1640.054 943.774c-9.846 10.713-24.812 16.226-43.796 16.226h-5.514c-96.492-4.49-192.67-9.295-289.083-13.785-12.997-0.709-30.72-1.418-44.583-15.518-4.357-4.471-7.915-9.746-10.427-15.577l-0.128-0.335c-14.257-31.429 5.829-51.751 15.281-61.44l24.182-24.812c16.62-17.329 33.634-34.58 50.649-51.436l-583.207-592.581-261.986 266.082c-15.013 15.253-35.882 24.704-58.959 24.704s-43.946-9.451-58.948-24.693l-0.011-0.011-349.105-354.146c-32.689-33.083-32.689-86.646 0-119.729l15.596-15.911c15.013-15.253 35.882-24.704 58.959-24.704s43.946 9.451 58.948 24.693l0.011 0.011 274.274 278.528 261.986-266.082c15.031-15.373 35.98-24.905 59.156-24.905s44.125 9.532 59.141 24.889l0.015 0.015 657.881 668.199 74.437-75.225c8.822-8.98 21.11-21.425 39.778-21.425 7.877 0 15.675 2.048 23.788 6.538 5.441 3.050 10.126 6.606 14.26 10.716l-0.003-0.003c14.651 14.887 17.329 33.871 18.038 48.679 2.678 63.488 5.75 126.976 8.822 190.858l4.411 95.626c1.024 20.007-3.387 35.446-13.942 46.553z" />
<glyph unicode="&#xe919;" glyph-name="close-icon" d="M685.349 448l302.738 302.665c22.213 22.195 35.953 52.867 35.953 86.747 0 67.725-54.902 122.628-122.628 122.628-33.844 0-64.487-13.711-86.675-35.881l-302.737-302.81-302.665 302.811c-22.188 22.169-52.83 35.88-86.674 35.88-67.725 0-122.628-54.902-122.628-122.628 0-33.881 13.74-64.553 35.953-86.747l302.52-302.666-302.592-302.665c-22.896-22.295-37.099-53.419-37.099-87.86 0-67.703 54.884-122.587 122.587-122.587 34.441 0 65.565 14.203 87.834 37.072l0.026 0.027 302.738 302.519 302.665-302.665c23.991-23.991 55.369-35.913 86.747-35.913 0.017 0 0.037 0 0.057 0 67.703 0 122.587 54.884 122.587 122.587 0 33.884-13.747 64.557-35.969 86.746l-302.739 302.739z" />
<glyph unicode="&#xe91a;" glyph-name="connect-icon" horiz-adv-x="1170" d="M56.101 498.395c67.877 171.52 251.099 257.317 549.742 257.317h140.727v163.328c0 11.118 3.95 20.699 11.922 28.745 7.017 7.524 16.989 12.215 28.056 12.215 0.062 0 0.125 0 0.187 0h-0.010c10.971 0 20.334-4.023 28.306-12.142l321.682-326.875c7.899-8.046 11.922-17.701 11.922-28.745 0.002-0.129 0.002-0.281 0.002-0.434 0-11.093-4.564-21.119-11.917-28.304l-0.008-0.007-321.682-326.875c-7.024-7.482-16.978-12.143-28.020-12.143-0.101 0-0.201 0-0.302 0.001h0.015c-0.063 0-0.139-0.001-0.214-0.001-11.042 0-20.995 4.661-28.001 12.122l-0.019 0.020c-7.36 7.192-11.925 17.219-11.925 28.311 0 0.153 0.001 0.305 0.003 0.457v-0.023 163.474h-140.727c-41.033 0-77.824-1.317-110.226-3.877-32.475-2.56-64.731-7.095-96.768-13.678s-59.904-15.653-83.602-27.136c-23.625-11.557-45.714-26.331-66.267-44.398-20.48-18.066-37.303-39.57-50.249-64.512-12.946-24.869-23.113-54.345-30.501-88.43-7.314-34.011-10.971-72.558-10.971-115.566 0-23.406 1.024-49.518 3.145-78.482 0-2.56 0.512-7.534 1.609-14.994 1.024-7.461 1.536-13.166 1.536-16.896 0.010-0.256 0.015-0.557 0.015-0.858 0-5.763-2.020-11.054-5.39-15.205l0.035 0.045c-3.374-3.919-8.34-6.385-13.883-6.385-0.314 0-0.625 0.008-0.935 0.023l0.043-0.002c-6.729 0-12.581 3.657-17.554 10.898-3.054 4.066-5.792 8.68-8.006 13.582l-0.186 0.461c-2.316 4.249-7.377 15.566-12.256 26.98l-2.811 7.398c-53.175 121.417-79.726 217.307-79.726 287.963 0 84.699 10.971 155.575 33.207 212.626z" />
<glyph unicode="&#xe91b;" glyph-name="delete-icon" horiz-adv-x="819" d="M64.785 49.801c0.503-62.958 51.656-113.801 114.685-113.801 0.097 0 0.194 0 0.291 0h459.693c0.082 0 0.179 0 0.276 0 63.029 0 114.182 50.843 114.684 113.753v682.715h-689.63v-682.667zM811.895 903.134h-201.182l-57.412 56.866h-287.403l-57.412-56.866h-201.182v-113.801h804.591v113.801z" />
<glyph unicode="&#xe91c;" glyph-name="down-arrow" horiz-adv-x="1755" d="M797.989 40.741l-691.931 662.089c-20.313 19.125-32.961 46.193-32.961 76.215s12.649 57.090 32.908 76.165l0.053 0.050c20.767 19.589 48.84 31.628 79.726 31.628s58.959-12.040 79.783-31.682l-0.057 0.053 612.206-585.728 612.206 585.728c20.767 19.589 48.84 31.628 79.726 31.628s58.959-12.040 79.783-31.682l-0.057 0.053c43.886-42.13 43.886-110.299 0-152.43l-691.931-662.089c-20.574-19.564-48.467-31.599-79.171-31.599-0.195 0-0.39 0-0.585 0.001h0.030c-0.165-0.001-0.36-0.001-0.555-0.001-30.704 0-58.597 12.035-79.22 31.645l0.049-0.046z" />
<glyph unicode="&#xe91d;" glyph-name="edit-icon" horiz-adv-x="1092" d="M674.133 789.129l209.374-209.374-529.886-529.749-209.169 209.306 529.749 529.886zM1042.295 839.646l-93.321 93.252c-16.757 16.722-39.888 27.062-65.434 27.062s-48.677-10.34-65.435-27.063l-89.427-89.427 209.374-209.374 104.243 104.311c27.989 27.989 27.989 73.114 0 101.103zM34.884-35.055c-0.36-1.551-0.566-3.332-0.566-5.161 0-13.158 10.667-23.825 23.825-23.825 1.969 0 3.882 0.239 5.713 0.689l-0.164-0.034 233.267 56.593-209.237 209.306-52.838-237.568z" />
<glyph unicode="&#xe91e;" glyph-name="editor-icon" horiz-adv-x="964" d="M481.882 960l-481.882-270.216 481.882-271.902 481.882 271.902-481.882 270.216zM166.189 689.544l315.633 177.092 315.753-177.092-315.693-178.116-315.693 178.116zM481.882 354.274l-324.909 184.079-156.973-88.425 481.882-272.986 481.882 272.986-156.973 88.425zM481.882 113.333l-324.909 184.079-156.973-88.425 481.882-272.986 481.882 272.986-156.973 88.425z" />
<glyph unicode="&#xe91f;" glyph-name="check" horiz-adv-x="1365" d="M1359.644 807.31l-846.507-865.621c-3.412-3.488-8.166-5.651-13.426-5.651s-10.014 2.163-13.422 5.648l-0.003 0.003-480.711 491.52c-3.446 3.558-5.571 8.415-5.571 13.767s2.124 10.209 5.576 13.772l-0.005-0.005 116.85 119.467c3.417 3.523 8.194 5.71 13.483 5.71s10.066-2.187 13.478-5.705l0.005-0.005 350.436-358.286 716.004 732.388c3.417 3.523 8.194 5.71 13.483 5.71s10.066-2.187 13.478-5.705l0.005-0.005 116.85-119.467c3.446-3.558 5.571-8.415 5.571-13.767s-2.124-10.209-5.576-13.772l0.005 0.005z" />
<glyph unicode="&#xe920;" glyph-name="funnel-icon" horiz-adv-x="1418" d="M0 960l531.692-512v-512l354.462 85.307v426.693l531.692 512z" />
<glyph unicode="&#xe921;" glyph-name="publish-icon" d="M940.169 905.114c-32.68 33.871-78.47 54.905-129.174 54.905-0.907 0-1.813-0.007-2.717-0.020l0.137 0.002h-621.909c-51.337 0-95.232-18.295-131.686-54.886-33.839-32.845-54.838-78.756-54.838-129.572 0-0.935 0.007-1.869 0.021-2.801l-0.002 0.141v-623.616c0-51.541 18.227-95.573 54.75-132.164 32.68-33.871 78.47-54.905 129.174-54.905 0.907 0 1.813 0.007 2.717 0.020l-0.137-0.002h621.909c51.337 0 95.232 18.295 131.755 54.886 33.798 32.839 54.769 78.724 54.769 129.506 0 0.935-0.007 1.868-0.021 2.799l0.002-0.141v623.684c0 51.541-18.295 95.642-54.75 132.233zM829.099 149.265c0-5.598-2.048-10.513-6.144-14.609-3.635-3.79-8.74-6.145-14.395-6.145-0.075 0-0.15 0-0.225 0.001h-621.762c-0.072-0.001-0.157-0.001-0.242-0.001-5.646 0-10.743 2.356-14.36 6.138l-0.007 0.007c-3.79 3.645-6.145 8.76-6.145 14.424 0 0.065 0 0.13 0.001 0.195v-0.010 623.684c0 5.598 2.048 10.445 6.144 14.609 4.096 4.096 8.943 6.144 14.609 6.144h621.773c5.598 0 10.513-2.048 14.609-6.144s6.144-9.011 6.144-14.609v-623.684zM536.713 602.351c-6.593 9.898-17.707 16.332-30.324 16.332-0.379 0-0.757-0.006-1.134-0.017l0.055 0.001c-0.308 0.009-0.671 0.015-1.035 0.015-12.645 0-23.781-6.462-30.284-16.264l-0.084-0.134-192.99-271.019c-4.873-6.010-7.823-13.752-7.823-22.183 0-6.567 1.79-12.716 4.909-17.986l-0.090 0.164c6.827-14.131 18.295-21.163 34.406-21.163h386.116c0.603-0.037 1.309-0.058 2.019-0.058 14.427 0 26.84 8.623 32.366 20.995l0.090 0.225c2.997 5.084 4.768 11.202 4.768 17.733 0 8.44-2.957 16.189-7.891 22.269l0.052-0.066-193.126 271.155z" />
<glyph unicode="&#xe922;" glyph-name="full-sceen-icon" horiz-adv-x="1308" d="M172.032 271.531h-115.143v-278.642h287.858v111.502h-172.715v167.14zM56.889 624.469h115.143v167.196h172.715v111.445h-287.858v-278.642zM1136.412 104.334h-172.715v-111.445h287.858v278.642h-115.143v-167.196zM963.698 903.111v-111.502h172.715v-167.14h115.143v278.642h-287.858z" />
<glyph unicode="&#xe923;" glyph-name="share-icon2" horiz-adv-x="1144" d="M950.272 365.839c-8.132 3.494-15.661 1.747-22.468-5.12-11.083-10.24-22.648-18.191-34.635-23.733-7.71-4.216-11.565-10.481-11.565-18.613v-137.336c0-28.25-10.059-52.405-30.118-72.523-20.119-20.058-44.333-30.118-72.523-30.118h-533.926c-28.25 0-52.405 10.059-72.523 30.118-18.589 17.995-30.129 43.176-30.129 71.052 0 0.517 0.004 1.033 0.012 1.549l-0.001-0.078v533.926c0 28.25 9.999 52.405 30.118 72.523s44.273 30.118 72.523 30.118h71.861c2.59 0 6.024 0.904 10.24 2.59 23.974 14.577 52.405 27.407 85.414 38.551 11.083 2.108 16.685 8.915 16.685 20.48 0 0.041 0 0.089 0 0.137 0 5.631-2.356 10.713-6.136 14.312l-0.008 0.008c-3.602 3.753-8.66 6.085-14.262 6.085-0.068 0-0.137 0-0.205-0.001h-163.529c-50.899 0-94.449-18.071-130.59-54.212s-54.212-79.691-54.212-130.59v-533.926c0-50.899 18.071-94.449 54.212-130.59s79.691-54.212 130.59-54.212h533.926c50.899 0 94.449 18.071 130.59 54.212s54.212 79.691 54.212 130.59v166.249c0 8.553-4.518 14.697-13.493 18.552zM776.433 581.12c-146.613-3.614-274.854-84.57-348.582-206.005-6.3-10.444-17.54-17.349-30.402-17.468h-0.017c-3.504 0.008-6.881 0.536-10.063 1.51l0.245-0.065c-15.324 4.999-26.202 19.162-26.202 35.865 0 0.012 0 0.025 0 0.037v-0.002 4.518c0 242.808 184.922 439.898 415.021 445.681v70.596c-0.001 0.132-0.002 0.289-0.002 0.446 0 16.486 8.95 30.881 22.256 38.593l0.214 0.114c5.66 3.184 12.424 5.059 19.627 5.059 8.943 0 17.21-2.891 23.918-7.79l-0.115 0.080 285.756-205.161c10.24-7.349 16.324-19.516 16.384-32.527 0-13.011-6.024-25.178-16.264-32.648l-285.636-207.812c-6.631-4.905-14.969-7.85-23.996-7.85-7.173 0-13.912 1.86-19.76 5.125l0.206-0.106c-13.554 7.818-22.53 22.231-22.53 38.742 0 0.145 0.001 0.289 0.002 0.434v-0.022 70.776z" />
<glyph unicode="&#xe924;" glyph-name="align-h" horiz-adv-x="1463" d="M1431.479 374.857h-156.599c-17.408 0-31.451 16.384-31.451 36.571s14.043 36.571 31.378 36.571h156.672c17.335 0 31.378-16.384 31.378-36.571s-14.043-36.571-31.378-36.571zM848.457 374.857h-234.057c-16.091 0-29.257 16.384-29.257 36.571s13.166 36.571 29.257 36.571h234.057c16.091 0 29.257-16.384 29.257-36.571s-13.166-36.571-29.257-36.571zM125.367 374.857h-104.448c-11.557 0-20.919 16.384-20.919 36.571s9.362 36.571 20.919 36.571h104.448c11.557 0 20.919-16.384 20.919-36.571s-9.362-36.571-20.919-36.571zM146.286-6.802v909.605c0 31.598 28.16 57.198 62.903 57.198h386.194c34.743 0 62.903-25.6 62.903-57.198v-909.605c0-31.598-28.16-57.198-62.903-57.198h-386.194c-34.743 0-62.903 25.6-62.903 57.198zM877.714 129.829v563.2c0 26.258 24.137 47.543 53.906 47.543h330.971c29.842 0 53.979-21.285 53.979-47.543v-563.2c0-26.258-24.137-47.543-53.906-47.543h-331.045c-29.769 0-53.906 21.285-53.906 47.543z" />
<glyph unicode="&#xe925;" glyph-name="align-v" horiz-adv-x="755" d="M323.368-40.879v115.389c0 12.773 12.072 23.121 26.947 23.121s26.947-10.348 26.947-23.121v-115.443c0-12.773-12.072-23.121-26.947-23.121s-26.947 10.348-26.947 23.121zM323.368 286.316v215.579c0 14.883 12.065 26.947 26.947 26.947s26.947-12.065 26.947-26.947v0-215.579c0-14.883-12.065-26.947-26.947-26.947s-26.947 12.065-26.947 26.947v0zM323.368 867.624v76.962c0 8.515 12.072 15.414 26.947 15.414s26.947-6.899 26.947-15.414v-76.962c0-8.515-12.072-15.414-26.947-15.414s-26.947 6.899-26.947 15.414zM42.146 852.211h670.235c23.283 0 42.146-20.749 42.146-46.349v-284.564c0-25.6-18.863-46.349-42.146-46.349h-670.235c-23.283 0-42.146 20.749-42.146 46.349v284.564c0 25.6 18.863 46.349 42.146 46.349zM142.821 313.263h414.989c19.348 0 35.032-17.785 35.032-39.72v-243.874c0-21.989-15.683-39.774-35.032-39.774h-414.989c-19.348 0-35.032 17.785-35.032 39.72v243.928c0 21.935 15.683 39.72 35.032 39.72z" />
<glyph unicode="&#xe926;" glyph-name="height" horiz-adv-x="951" d="M914.286 880.786v12.142c0 16.823-16.384 30.501-36.571 30.501h-804.571c-20.187 0-36.571-13.678-36.571-30.501v-12.142c0-16.823 16.384-30.501 36.571-30.501h804.571c20.187 0 36.571 13.678 36.571 30.501zM914.286 3.072v12.142c0 16.823-16.384 30.501-36.571 30.501h-804.571c-20.187 0-36.571-13.678-36.571-30.501v-12.142c0-16.823 16.384-30.501 36.571-30.501h804.571c20.187 0 36.571 13.678 36.571 30.501zM484.059 122.88l60.928 68.535c2.227 2.543 3.585 5.896 3.585 9.566 0 0.057 0 0.114-0.001 0.171v-0.009c-0.007 1.893-0.355 3.702-0.986 5.372l0.035-0.106c-1.606 4.837-6.007 8.298-11.243 8.484l-0.021 0.001h-48.713v466.213h48.713c5.257 0.187 9.658 3.648 11.239 8.398l0.025 0.087c0.611 1.567 0.964 3.381 0.964 5.277 0 3.721-1.362 7.123-3.614 9.736l0.016-0.019-60.928 68.535c-2.098 2.444-5.181 3.992-8.626 4.023h-0.005c-3.45-0.031-6.533-1.578-8.618-4.008l-0.013-0.015-60.928-68.535c-2.227-2.553-3.585-5.914-3.585-9.593 0-0.047 0-0.095 0.001-0.142v0.007c0.007-1.893 0.355-3.702 0.986-5.372l-0.035 0.106c1.902-5.12 6.29-8.485 11.264-8.485h48.713v-466.286h-48.713c-5.24-0.175-9.634-3.605-11.238-8.325l-0.026-0.087c-0.611-1.567-0.964-3.381-0.964-5.277 0-3.721 1.362-7.123 3.614-9.736l-0.016 0.019 60.928-68.535c2.103-2.437 5.183-3.982 8.624-4.023h0.007c3.45 0.031 6.533 1.578 8.618 4.008l0.013 0.015z" />
<glyph unicode="&#xe927;" glyph-name="left" horiz-adv-x="1365" d="M697.458 679.424l-486.059-516.437c-10.788-11.583-17.41-27.171-17.41-44.306 0-0.184 0.001-0.367 0.002-0.55v0.028c0-17.067 6.144-32.996 17.408-44.942l35.726-38.002c10.518-11.445 25.559-18.592 42.268-18.592s31.75 7.147 42.231 18.551l0.037 0.041 408.121 433.607 408.576-434.062c10.564-11.352 25.59-18.43 42.268-18.43s31.704 7.078 42.236 18.395l0.032 0.035 35.726 38.002c10.856 11.598 17.523 27.234 17.523 44.427 0 0.141 0 0.282-0.001 0.423v-0.022c0 17.067-6.258 32.996-17.522 44.942l-486.4 516.892c-10.572 11.424-25.645 18.553-42.382 18.553s-31.81-7.128-42.347-18.515l-0.035-0.038zM1309.355 846.222c0-31.419-25.47-56.889-56.889-56.889h-1137.778c-31.419 0-56.889 25.47-56.889 56.889s25.47 56.889 56.889 56.889h1137.778c31.419 0 56.889-25.47 56.889-56.889z" />
<glyph unicode="&#xe928;" glyph-name="next" horiz-adv-x="1097" d="M62.757-62.171c-28.233 0-51.2 23.406-51.2 52.297v915.383c0.073 28.891 23.040 52.297 51.273 52.297l830.903-470.747s38.327-39.205 0-78.482c-38.4-39.205-830.903-470.747-830.903-470.747zM925.989 901.632c0 31.305 24.869 56.686 55.442 56.686h59.977c30.72 0 55.442-25.381 55.442-56.686v-907.118c0-31.305-24.795-56.686-55.369-56.686h-60.050c-30.7 0.37-55.445 25.344-55.445 56.097 0 0.207 0.001 0.414 0.003 0.621v-0.032 907.118z" />
<glyph unicode="&#xe929;" glyph-name="play1" horiz-adv-x="967" d="M912.498 492.601l-792.292 460.8c-6.976 4.060-15.354 6.457-24.292 6.457-27.020 0-48.924-21.904-48.924-48.924 0-0.070 0-0.14 0-0.21v0.011-922.396c0-0.059 0-0.129 0-0.199 0-27.020 21.904-48.924 48.924-48.924 8.938 0 17.316 2.397 24.526 6.582l-0.234-0.125 792.292 460.8c32.54 19.74 32.54 67.3 0 86.13z" />
<glyph unicode="&#xe92a;" glyph-name="text" horiz-adv-x="1792" d="M11.904 176.384l323.84 698.24c22.528 48.128 63.616 77.312 119.424 77.312h11.904c55.68 0 95.488-29.184 118.016-77.312l323.84-698.24c6.16-11.384 10.022-24.826 10.618-39.111l0.006-0.185c-0.493-51.937-42.71-93.849-94.716-93.849-0.767 0-1.531 0.009-2.293 0.027l0.113-0.002c-47.744 0-79.616 26.624-98.176 67.2l-62.336 139.392h-408.704l-65.024-145.792c-15.784-36.071-51.162-60.818-92.321-60.818-0.664 0-1.326 0.006-1.986 0.019l0.099-0.002c-0.687-0.018-1.495-0.029-2.306-0.029-50.542 0-91.555 40.799-91.902 91.26v0.033c0.914 15.471 5.214 29.754 12.164 42.372l-0.26-0.516zM586.496 422.144l-128.768 292.736-128.64-292.736h257.28zM1016.32 246.016v2.56c0 148.224 118.144 216.704 286.72 216.704 71.68 0 123.264-11.392 173.696-27.904v11.52c0 79.744-51.712 124.16-152.576 124.16-55.68 0-100.864-7.68-139.264-19.072-8.681-3.181-18.703-5.051-29.153-5.12h-0.031c-46.464 0-83.584 34.304-83.584 78.592 0 34.304 22.528 63.36 54.4 74.88 63.616 22.784 132.608 35.456 226.816 35.456 110.080 0 189.824-27.904 240.256-76.032 52.992-50.688 76.8-125.44 76.8-216.704v-309.376c0-51.968-43.648-92.544-98.048-92.544-58.368 0-96.896 39.296-96.896 79.872v1.28c-49.152-51.968-116.736-86.144-215.040-86.144-133.888 0-244.096 73.472-244.096 207.744zM1479.424 290.432v34.176c-37.18 16.032-80.465 25.356-125.928 25.356-0.999 0-1.996-0.004-2.993-0.013l0.153 0.001c-86.144 0-139.264-32.896-139.264-93.824v-2.56c0-51.84 45.056-82.304 110.080-82.304 94.208 0 157.952 49.408 157.952 119.040z" />
<glyph unicode="&#xe92b;" glyph-name="top" horiz-adv-x="768" d="M540.16 454.4l-387.413 364.544c-8.687 8.091-20.378 13.058-33.229 13.058-0.138 0-0.275-0.001-0.413-0.002h0.021c-12.8 0-24.747-4.608-33.707-13.056l-28.501-26.88c-8.556-7.886-13.898-19.149-13.898-31.659s5.341-23.773 13.868-31.631l0.030-0.027 325.205-306.091-325.547-306.432c-8.514-7.923-13.823-19.192-13.823-31.701s5.309-23.778 13.796-31.677l0.026-0.024 28.501-26.88c8.687-8.092 20.379-13.058 33.23-13.058 0.168 0 0.335 0.001 0.502 0.003h-0.026c12.8 0 24.747 4.693 33.621 13.056l387.755 364.885c8.568 7.929 13.915 19.234 13.915 31.787s-5.346 23.858-13.886 31.761l-0.029 0.026zM682.667 917.333c23.564 0 42.667-19.103 42.667-42.667v-853.333c0-23.564-19.103-42.667-42.667-42.667s-42.667 19.103-42.667 42.667v853.333c0 23.564 19.103 42.667 42.667 42.667z" />
<glyph unicode="&#xe92c;" glyph-name="trasparency" horiz-adv-x="1479" d="M1479.111 448c0-282.77-229.23-512-512-512s-512 229.23-512 512c0 282.77 229.23 512 512 512s512-229.23 512-512z" />
<glyph unicode="&#xe92d;" glyph-name="width" horiz-adv-x="1109" d="M49.749 960h-14.165c-19.627 0-35.584-19.115-35.584-42.667v-938.667c0-23.552 15.957-42.667 35.584-42.667h14.165c19.627 0 35.584 19.115 35.584 42.667v938.667c0 23.552-15.957 42.667-35.584 42.667zM1073.749 960h-14.165c-19.627 0-35.584-19.115-35.584-42.667v-938.667c0-23.552 15.957-42.667 35.584-42.667h14.165c19.627 0 35.584 19.115 35.584 42.667v938.667c0 23.552-15.957 42.667-35.584 42.667zM933.973 458.069l-79.957 71.083c-2.967 2.598-6.879 4.182-11.16 4.182-0.066 0-0.133 0-0.199-0.001h0.010c-2.208-0.008-4.319-0.414-6.267-1.15l0.123 0.041c-5.643-1.873-9.681-7.008-9.898-13.116l-0.001-0.025v-56.832h-543.915v56.832c-0.218 6.133-4.256 11.268-9.797 13.112l-0.101 0.029c-1.828 0.712-3.944 1.125-6.157 1.125-4.341 0-8.31-1.589-11.359-4.216l0.023 0.019-79.957-71.083c-2.852-2.447-4.657-6.044-4.693-10.063v-0.006c0-3.669 1.536-7.253 4.693-10.069l79.957-71.083c2.979-2.598 6.9-4.182 11.192-4.182 0.055 0 0.111 0 0.166 0.001h-0.008c2.208 0.008 4.319 0.414 6.267 1.15l-0.123-0.041c5.643 1.873 9.681 7.008 9.898 13.116l0.001 0.025v56.832h544v-56.832c0-5.803 3.84-10.923 9.813-13.141s12.885-1.024 17.493 3.072l79.957 71.083c2.843 2.454 4.645 6.046 4.693 10.061v0.008c-0.036 4.025-1.842 7.622-4.675 10.054l-0.018 0.015z" />
<glyph unicode="&#xe92e;" glyph-name="fb" horiz-adv-x="544" d="M514.112 959.776l-127.936 0.224c-143.744 0-236.64-98.016-236.64-249.728v-115.136h-128.64c-11.138-0.179-20.098-9.25-20.098-20.414 0-0.102 0.001-0.204 0.002-0.306v0.015-166.848c0-11.424 8.992-20.672 20.096-20.672h128.64v-420.96c0-11.424 9.024-20.704 20.16-20.704h167.808c11.104 0 20.128 9.28 20.128 20.704v420.928h150.4c11.104 0 20.128 9.28 20.128 20.672l0.064 166.848c0 0.010 0 0.021 0 0.033 0 5.67-2.245 10.816-5.894 14.598l0.006-0.006c-3.603 3.738-8.648 6.065-14.237 6.080h-150.467v97.6c0 46.912 10.88 70.72 70.272 70.72l86.208 0.032c11.104 0 20.096 9.28 20.096 20.704v154.912c0.001 0.086 0.002 0.188 0.002 0.29 0 11.164-8.96 20.235-20.081 20.413h-0.017z" />
<glyph unicode="&#xe92f;" glyph-name="restart" horiz-adv-x="993" d="M619.737 61.021c-42.174-17.684-91.187-27.958-142.6-27.958-0.049 0-0.098 0-0.147 0h0.008c-102.71 0-195.646 41.022-264.626 107.241l31.589 18.928c22.187 13.219 21.969 34.32-0.465 47.104l-154.096 87.816c-22.435 12.784-41.022 1.862-41.581-24.452l-3.631-182.831c-0.528-26.345 17.005-36.926 39.16-23.645l43.722 26.065c87.661-94.115 211.751-153.29 349.867-153.29 0.003 0 0.007 0 0.011 0 51.377 0 100.829 8.242 147.106 23.475l-3.323-0.947c96.659 26.003 48.562 123.035-1.024 102.493zM95.791 473.538c21.008 157.168 135.478 284.176 285.044 323.088v100.011c-188.323-38.571-336.462-188.168-374.815-378.135-33.916-121.577 86.264-97.311 89.771-44.994zM423.253 712.813l156.548 94.58c22.745 13.746 22.807 36.181 0.093 50.021l-157.913 96.473c-22.745 13.84-41.084 3.413-40.96-23.397l0.838-194.095c0.093-26.779 18.68-37.36 41.425-23.583zM964.825 247.296l-81.982 48.966 49.835-29.044c16.074 48.407 25.135 100.104 25.135 154.003 0 147.084-64.946 278.838-167.408 367.802-48.966 44.56-121.080-3.941-74.907-63.364 89.394-71.828 146.125-181.145 146.125-303.712 0-37.196-5.225-73.173-14.981-107.234l0.672 2.743-42.294 25.259c-22.032 13.188-39.595 2.327-39.222-24.204l2.793-182.334c0.403-26.593 18.804-37.733 41.053-24.917l154.779 88.995c22.28 12.816 22.435 33.885 0.403 47.042z" />
<glyph unicode="&#xe930;" glyph-name="tshape" horiz-adv-x="1263" d="M1262.933 838.144c-43.32-19.663-93.572-33.966-146.26-40.372l-2.493-0.247c53.471 32.275 93.71 81.853 113.341 140.846l0.528 1.832c-47.401-28.451-102.549-50.189-161.264-62.099l-3.361-0.569c-47.317 50.272-114.295 81.579-188.585 81.579-0.181 0-0.361 0-0.542-0.001h0.028c-143.053 0-259.072-115.61-259.072-258.116 0-20.207 2.287-39.936 6.69-58.812-215.642 11.008-405.413 113.183-532.925 268.438l-1.023 1.284c-22.032-36.983-35.056-81.553-35.056-129.165 0-0.202 0-0.405 0.001-0.607v0.032c0-0.017 0-0.036 0-0.056 0-89.262 45.37-167.927 114.307-214.193l0.928-0.586c-43.287 1.476-83.504 13.317-118.653 33.101l1.303-0.674v-3.243c0-125.030 89.327-229.376 207.804-253.133-20.47-5.73-43.98-9.031-68.258-9.045h-0.009c-0.063 0-0.137 0-0.211 0-17.197 0-33.988 1.74-50.206 5.053l1.607-0.274c34.241-103.515 129.252-177.256 241.77-179.265l0.236-0.003c-87.46-68.786-199.175-110.32-320.59-110.32-0.417 0-0.833 0-1.249 0.001h0.065c-20.89 0-41.506 1.229-61.781 3.516 112.043-72.821 249.101-116.122 396.272-116.122 0.294 0 0.587 0 0.881 0.001h-0.046c476.604 0 737.109 393.318 737.109 734.447l-0.853 33.417c51.131 36.697 94.144 80.916 128.409 131.54l1.161 1.819z" />
<glyph unicode="&#xe931;" glyph-name="url" d="M971.28 335.050l-130.513 130.513c-35.126 35.126-77.793 52.72-128 52.72-51.014 0-94.518-18.401-130.513-55.234l-55.203 55.234c36.802 35.964 55.234 79.655 55.234 131.134 0 50.176-17.377 92.656-52.1 127.379l-129.241 129.862c-34.785 35.561-77.39 53.341-128 53.341-50.207 0-92.656-17.377-127.379-52.1l-92.222-91.601c-35.561-34.723-53.341-77.172-53.341-127.348 0-50.207 17.563-92.874 52.689-128.031l130.513-130.482c35.157-35.157 77.824-52.72 128-52.72 51.045 0 94.549 18.401 130.513 55.234l55.234-55.234c-36.833-35.995-55.234-79.686-55.234-131.134 0-50.207 17.377-92.656 52.069-127.379l129.272-129.862c34.754-35.561 77.39-53.341 128-53.341 50.207 0 92.625 17.377 127.348 52.069l92.253 91.601c35.561 34.754 53.341 77.203 53.341 127.379 0 50.207-17.594 92.874-52.72 128zM423.067 621.242c-3.55 3.621-7.323 7.512-11.076 11.424l-0.499 0.523c-4.437 4.665-8.827 9.065-13.319 13.358l-0.148 0.14c-3.546 3.131-7.418 6.225-11.439 9.127l-0.446 0.306c-4.55 3.509-9.865 6.305-15.624 8.096l-0.357 0.096c-4.948 1.382-10.629 2.176-16.497 2.176-0.255 0-0.51-0.002-0.764-0.004h0.039c-16.694 0-30.906-5.865-42.605-17.594-10.828-10.59-17.542-25.348-17.542-41.675 0-0.371 0.003-0.741 0.010-1.11l-0.001 0.055c0-6.299 0.745-12.040 2.172-17.284 1.489-5.275 4.189-10.581 8.161-16.043 3.972-5.43 7.106-9.433 9.402-11.947 2.296-2.482 6.765-7.013 13.467-13.498l11.885-11.636c-11.081-12.001-26.894-19.49-44.457-19.49-0.222 0-0.443 0.001-0.664 0.004h0.034c-17.129 0-31.341 5.648-42.574 16.974l-130.296 130.731c-10.828 10.6-17.542 25.366-17.542 41.701 0 0.372 0.003 0.744 0.010 1.115l-0.001-0.056c0 16.353 5.834 30.41 17.532 42.108l92.067 91.788c12.102 11.326 26.314 16.974 42.605 16.974 16.694 0 30.875-5.865 42.574-17.594l129.024-130.11c11.698-11.76 17.532-26.003 17.532-42.76 0-17.594-6.889-32.892-20.666-45.925zM904.068 146.541l-92.067-91.788c-11.698-10.892-25.879-16.353-42.605-16.353-17.129 0-31.31 5.648-42.574 16.974l-129.024 130.141c-10.828 10.59-17.542 25.348-17.542 41.675 0 0.371 0.003 0.741 0.010 1.11l-0.001-0.055c0 17.594 6.889 32.892 20.666 45.894l11.605-11.947c6.454-6.703 10.954-11.202 13.467-13.498 2.482-2.327 6.454-5.461 11.885-9.464 5.43-3.972 10.736-6.703 15.981-8.161 5.213-1.489 10.954-2.203 17.222-2.203 16.694 0 30.906 5.865 42.605 17.594 10.828 10.6 17.541 25.366 17.541 41.7 0 0.362-0.003 0.723-0.010 1.083l0.001-0.054c0 6.299-0.745 12.071-2.172 17.315-1.883 6.127-4.68 11.454-8.279 16.13l0.087-0.118c-3.203 4.499-6.288 8.392-9.553 12.123l0.151-0.176c-2.296 2.513-6.765 7.013-13.467 13.529-4.463 4.343-8.334 8.136-12.194 11.941l0.309-0.304c12.536 13.405 27.555 20.108 45.087 20.108 16.694 0 30.906-5.865 42.574-17.594l130.296-130.762c11.698-11.729 17.532-26.003 17.532-42.76 0-16.322-5.834-30.379-17.532-42.077z" />
<glyph unicode="&#xe932;" glyph-name="email" horiz-adv-x="1331" d="M1198.080 960h-1064.96c-73.216 0-133.12-57.651-133.12-128v-768c0-70.451 59.904-128 133.12-128h1064.96c73.216 0 133.12 57.651 133.12 128v768c0 70.451-59.904 128-133.12 128zM1126.4 711.27l-512-365.67-512 365.67v146.33l512-365.67 512 365.67v-146.33z" />
<glyph unicode="&#xe933;" glyph-name="share-icon-display" horiz-adv-x="1161" d="M942.49 367.309c-7.987 3.413-15.36 1.707-22.050-5.052-10.923-10.035-22.323-17.818-34.065-23.279-7.509-4.233-11.332-10.24-11.332-18.295v-134.895c0-27.716-9.899-51.473-29.628-71.202-19.797-19.797-43.486-29.628-71.202-29.628h-524.425c-27.716 0-51.473 9.899-71.202 29.628-18.285 17.677-29.637 42.426-29.637 69.827 0 0.484 0.004 0.966 0.011 1.448l-0.001-0.073v524.425c0 27.716 9.83 51.473 29.628 71.202 19.729 19.797 43.486 29.628 71.202 29.628h70.588c3.709 0.249 7.147 1.154 10.284 2.601l-0.181-0.075c23.484 14.336 51.473 26.897 83.831 37.82 10.923 2.116 16.384 8.875 16.384 20.207 0 5.461-2.048 10.172-6.007 14.131-3.538 3.705-8.515 6.008-14.031 6.008-0.059 0-0.118 0-0.177-0.001h-160.622c-49.971 0-92.774-17.749-128.273-53.248s-53.316-78.302-53.316-128.341v-524.288c0-50.039 17.749-92.843 53.248-128.341s78.302-53.248 128.341-53.248h524.288c50.039 0 92.843 17.749 128.341 53.248s53.248 78.302 53.248 128.341v163.157c0 8.465-4.437 14.541-13.244 18.295zM775.509 573.611c-153.327-3.755-287.539-86.289-364.681-210.193-6.747-10.744-18.532-17.782-31.961-17.782-3.617 0-7.114 0.51-10.425 1.463l0.266-0.065c-15.929 4.919-27.314 19.486-27.375 36.72v4.649c0 247.603 193.468 448.649 434.176 454.588v71.885c0 16.794 9.079 32.085 23.484 39.936 5.936 3.26 13.007 5.177 20.526 5.177 9.345 0 17.998-2.962 25.072-7.997l-0.133 0.090 299.008-209.169c10.718-7.509 17.067-19.866 17.135-33.178 0-0.060 0-0.13 0-0.201 0-13.57-6.655-25.587-16.879-32.963l-0.12-0.082-298.803-211.968c-6.971-5.026-15.685-8.039-25.103-8.039-7.51 0-14.572 1.916-20.724 5.285l0.225-0.113c-14.141 7.858-23.552 22.708-23.552 39.755 0 0.063 0 0.127 0 0.19v-0.010 72.021z" />
<glyph unicode="&#xe934;" glyph-name="image" horiz-adv-x="1331" d="M1308.262 960h-1285.325c-0.122 0.002-0.267 0.004-0.412 0.004-12.335 0-22.355-9.914-22.526-22.208v-979.574c0-12.288 10.24-22.221 22.938-22.221h1285.325c0.122-0.002 0.267-0.004 0.412-0.004 12.335 0 22.355 9.914 22.526 22.208v979.574c-0.171 12.311-10.191 22.225-22.526 22.225-0.145 0-0.289-0.001-0.433-0.004h0.022zM367.206 715.162c70.554 0 127.795-55.603 127.795-124.006 0-68.301-57.344-123.904-127.795-123.904s-127.795 55.603-127.795 123.904c0 68.403 57.344 123.904 127.795 123.904zM1210.368 299.418c-4.288-4.433-10.291-7.185-16.936-7.185-5.912 0-11.315 2.178-15.451 5.776l0.029-0.024-258.458 229.888-210.739-223.846 110.285-107.008c4.127-3.974 6.69-9.547 6.69-15.718s-2.563-11.744-6.683-15.712l-0.007-0.007c-4.206-4.038-9.928-6.525-16.23-6.525s-12.025 2.487-16.238 6.532l0.008-0.008-236.442 229.171-374.374-319.693c-4.045-3.454-9.336-5.556-15.118-5.556-6.819 0-12.956 2.924-17.225 7.586l-0.016 0.018c-3.554 3.868-5.732 9.048-5.732 14.738 0 6.687 3.009 12.672 7.748 16.672l0.032 0.027 390.554 333.517c4.065 3.432 9.363 5.517 15.148 5.517 6.324 0 12.066-2.493 16.297-6.549l-0.008 0.008 108.851-105.472 224.768 238.592c4.252 4.531 10.278 7.353 16.964 7.353 5.964 0 11.404-2.246 15.519-5.939l-0.022 0.019 275.456-244.838c9.216-8.294 9.933-22.426 1.331-31.437z" />
<glyph unicode="&#xe935;" glyph-name="search-drop" d="M1008.412 27.25l-252.359 253.497c64.853 74.524 100.466 168.277 100.466 265.785 0 228.011-192.171 413.468-428.26 413.468-236.203 0-428.26-185.458-428.26-413.468 0-227.897 192.057-413.355 428.26-413.355 88.633 0 173.056 25.714 245.305 74.752l254.407-255.431c10.581-10.581 24.917-16.498 40.164-16.498 0.077 0 0.169-0.001 0.26-0.001 14.846 0 28.359 5.71 38.462 15.054l-0.038-0.034c10.543 9.666 17.129 23.501 17.129 38.875 0 14.6-5.939 27.813-15.534 37.354l-0.002 0.002zM428.146 852.139c174.649 0 316.644-137.102 316.644-305.607 0-168.391-141.995-305.607-316.53-305.607s-316.53 137.102-316.53 305.607c0 168.505 141.995 305.607 316.53 305.607z" />
</font>
</defs>
</svg>
