<svg xmlns="http://www.w3.org/2000/svg" xmlns:xlink="http://www.w3.org/1999/xlink" width="406" height="237" viewBox="0 0 406 237">
    <defs>
        <path id="b" d="M206 179c-10.356 0-19.438-1.356-27.245-4.068-7.807-2.712-14.5-6.382-20.076-11.008-5.576-4.627-10.237-9.971-13.98-16.034a86.802 86.802 0 0 1-8.844-19.144 113.464 113.464 0 0 1-4.54-20.34c-.877-6.861-1.315-13.482-1.315-19.863 0-6.222.438-12.763 1.314-19.623.877-6.86 2.39-13.56 4.541-20.102a83.328 83.328 0 0 1 8.843-18.666c3.744-5.902 8.405-11.087 13.981-15.554 5.577-4.467 12.269-8.017 20.076-10.65C186.562 1.317 195.644 0 206 0c15.614 0 28.36 2.832 38.239 8.495 9.878 5.664 17.606 12.843 23.182 21.538 5.577 8.695 9.4 18.267 11.472 28.716C280.964 69.2 282 79.13 282 88.543c0 6.222-.438 12.803-1.314 19.742-.877 6.94-2.39 13.76-4.541 20.461a90.159 90.159 0 0 1-8.724 19.144c-3.664 6.063-8.325 11.407-13.98 16.034-5.657 4.626-12.389 8.296-20.196 11.008C225.438 177.644 216.356 179 206 179zm0-129.943c-3.505 0-6.373 1.197-8.604 3.59-2.23 2.393-3.983 5.504-5.258 9.333-1.274 3.829-2.15 8.096-2.629 12.803a136.186 136.186 0 0 0-.717 13.76c0 4.626.24 9.373.717 14.238.478 4.866 1.355 9.293 2.63 13.282 1.274 3.988 3.027 7.219 5.257 9.692 2.23 2.473 5.099 3.709 8.604 3.709 3.505 0 6.413-1.236 8.723-3.71 2.31-2.472 4.063-5.703 5.258-9.691 1.195-3.989 2.032-8.416 2.51-13.282.478-4.865.717-9.612.717-14.238 0-4.467-.24-9.054-.717-13.76-.478-4.707-1.315-8.974-2.51-12.803-1.195-3.829-2.947-6.94-5.258-9.333-2.31-2.393-5.218-3.59-8.723-3.59z"/>
        <filter id="a" width="169.1%" height="158.7%" x="-34.5%" y="-20.9%" filterUnits="objectBoundingBox">
            <feOffset dy="15" in="SourceAlpha" result="shadowOffsetOuter1"/>
            <feGaussianBlur in="shadowOffsetOuter1" result="shadowBlurOuter1" stdDeviation="15"/>
            <feColorMatrix in="shadowBlurOuter1" values="0 0 0 0 0 0 0 0 0 0 0 0 0 0 0 0 0 0 0.203408062 0"/>
        </filter>
    </defs>
    <g fill="none" fill-rule="evenodd">
        <path fill="#6151F7" d="M133.27 189H81.589v-30.014H0v-46.582L64.123 19h68.908v95.325H156v44.66h-22.73V189zM81.35 71.345l-28.233 42.98h29.19v-42.98h-.957z"/>
        <path fill="#EEE" d="M383.27 189h-51.681v-30.014H250v-46.582L314.123 19h68.908v95.325H406v44.66h-22.73V189zM331.35 71.345l-28.233 42.98h29.19v-42.98h-.957z"/>
        <g transform="translate(0 14)">
            <use fill="#000" filter="url(#a)" xlink:href="#b"/>
            <use fill="#FFF" xlink:href="#b"/>
        </g>
    </g>
</svg>
