<svg xmlns="http://www.w3.org/2000/svg" width="20" height="14" viewBox="0 0 20 14">
    <g fill="none" fill-rule="nonzero">
        <path fill="#555F81" d="M19.571 8H17.43C17.192 8 17 7.776 17 7.5s.192-.5.429-.5h2.142c.237 0 .429.224.429.5s-.192.5-.429.5zM11.6 8H8.4c-.22 0-.4-.224-.4-.5s.18-.5.4-.5h3.2c.22 0 .4.224.4.5s-.18.5-.4.5zM1.714 8H.286C.128 8 0 7.776 0 7.5S.128 7 .286 7h1.428c.158 0 .286.224.286.5s-.128.5-.286.5z"/>
        <path fill="#4B5268" d="M2 13.218V.782C2 .35 2.385 0 2.86 0h5.28c.475 0 .86.35.86.782v12.436c0 .432-.385.782-.86.782H2.86c-.475 0-.86-.35-.86-.782z"/>
        <path fill="#A7B6D7" d="M12 11.35v-7.7c0-.359.33-.65.737-.65h4.525c.408 0 .738.291.738.65v7.7c0 .359-.33.65-.737.65h-4.526c-.407 0-.737-.291-.737-.65z"/>
    </g>
</svg>
