<svg xmlns="http://www.w3.org/2000/svg" width="14" height="19" viewBox="0 0 14 19">
    <g fill="none" fill-rule="nonzero">
        <path fill="#555F81" d="M6 18.571V16.43c0-.237.224-.429.5-.429s.5.192.5.429v2.142c0 .237-.224.429-.5.429s-.5-.192-.5-.429zM6 12.5v-4a.5.5 0 0 1 1 0v4a.5.5 0 0 1-1 0zM6 1.714V.286C6 .128 6.224 0 6.5 0s.5.128.5.286v1.428C7 1.872 6.776 2 6.5 2S6 1.872 6 1.714z"/>
        <path fill="#4B5268" d="M.782 2h12.436c.432 0 .782.385.782.86v5.28c0 .475-.35.86-.782.86H.782C.35 9 0 8.615 0 8.14V2.86C0 2.385.35 2 .782 2z"/>
        <path fill="#A7B6D7" d="M2.65 12h7.7c.359 0 .65.33.65.737v4.525c0 .408-.291.738-.65.738h-7.7c-.359 0-.65-.33-.65-.737v-4.526c0-.407.291-.737.65-.737z"/>
    </g>
</svg>
