<svg xmlns="http://www.w3.org/2000/svg" width="19" height="19" viewBox="0 0 19 19">
    <path fill="#FFF" fill-opacity=".5" fill-rule="nonzero" d="M17.1 0H1.9C.855 0 0 .855 0 1.9v15.2C0 18.145.855 19 1.9 19h15.2c1.045 0 1.9-.855 1.9-1.9V1.9C19 .855 18.145 0 17.1 0zm-1.643 6.594c-.097 4.278-2.904 7.253-7.164 7.44-1.742.092-3-.466-4.163-1.117 1.259.186 2.905-.279 3.776-1.022-1.259-.093-2.033-.744-2.42-1.767.387.093.774 0 1.065 0-1.162-.372-1.937-1.023-2.033-2.511.29.186.677.279 1.065.279-.872-.465-1.453-2.232-.775-3.348 1.259 1.302 2.807 2.418 5.324 2.604-.677-2.604 3.002-3.999 4.454-2.232.677-.093 1.161-.372 1.645-.558-.193.651-.58 1.023-1.065 1.395.484-.093.969-.186 1.356-.372-.097.465-.581.837-1.065 1.21z"/>
</svg>
