<svg xmlns="http://www.w3.org/2000/svg" width="19" height="15" viewBox="0 0 19 15">
    <g fill="#FFF" fill-rule="nonzero">
        <path d="M12.383 12.286c-.358 0-.618.285-.618.678v.679H1.235V5.357h1.657c.358 0 .618-.286.618-.678 0-.393-.26-.679-.617-.679H.618C.26 4 0 4.286 0 4.679v9.642c0 .393.26.679.618.679h11.764c.358 0 .618-.286.618-.679v-1.357c0-.393-.26-.678-.617-.678z"/>
        <path d="M18.818 5.04L13.721.199c-.473-.45-1.165-.069-1.165.485v2.144c-2.658.104-4.77.934-6.262 2.352C4 7.36 4 10.23 4 10.333c0 .346.291.657.692.657.255 0 .473-.104.582-.311 1.311-2.214 4.77-2.56 6.7-2.56h.582v2.214c0 .553.728.899 1.165.484l5.097-4.842c.146-.139.182-.312.182-.485a.557.557 0 0 0-.182-.45zm-4.879 3.702V7.53c0-.346-.255-.623-.619-.657-.036 0-.546-.07-1.347-.07-1.638 0-4.223.243-6.153 1.453a6.234 6.234 0 0 1 1.457-2.144c1.347-1.28 3.386-1.972 5.97-1.972.401 0 .692-.276.692-.657v-1.21l3.386 3.216-3.386 3.252z"/>
    </g>
</svg>
