<svg xmlns="http://www.w3.org/2000/svg" width="37" height="36" viewBox="0 0 37 36">
    <g fill="none" fill-rule="evenodd">
        <rect width="37" height="36" fill="#3D4357" rx="3"/>
        <circle cx="18.5" cy="18.5" r="11.5" fill="#C2CCF0"/>
        <path fill="#3D4358" d="M15.69 21.719A3229.353 3229.353 0 0 0 11 19.31v-1.59a3229.353 3229.353 0 0 1 4.69-2.408v1.922c-.423.229-.843.448-1.26.658-.417.21-.836.429-1.26.658.424.206.843.41 1.26.611l1.26.611v1.946zm.69.51L19.167 13l1.453.57-2.796 9.228-1.444-.57zm4.93-6.916A3229.353 3229.353 0 0 0 26 17.721v1.59a3229.753 3229.753 0 0 1-4.69 2.408v-1.946c.423-.205.843-.41 1.26-.61l1.26-.612a45.88 45.88 0 0 0-1.26-.658 45.88 45.88 0 0 1-1.26-.658v-1.922z"/>
    </g>
</svg>
