<svg xmlns="http://www.w3.org/2000/svg" width="37" height="36" viewBox="0 0 37 36">
    <g fill="none" fill-rule="evenodd">
        <rect width="37" height="36" fill="#3D4357" rx="3"/>
        <path fill="#C2CCF0" fill-rule="nonzero" d="M18.5 7C12.159 7 7 12.159 7 18.5 7 24.84 12.159 30 18.5 30 24.84 30 30 24.84 30 18.5 30 12.159 24.842 7 18.5 7zm2.86 11.905h-1.871v6.668h-2.772v-6.668h-1.318v-2.357h1.318v-1.524c0-1.092.518-2.798 2.797-2.798l2.055.008v2.287h-1.491c-.243 0-.588.122-.588.642v1.385h2.112l-.242 2.357z"/>
    </g>
</svg>
