<svg xmlns="http://www.w3.org/2000/svg" width="37" height="36" viewBox="0 0 37 36">
    <g fill="none" fill-rule="evenodd">
        <rect width="37" height="36" fill="#3D4357" rx="3"/>
        <path fill="#C2CCF0" fill-rule="nonzero" d="M18.5 7C12.159 7 7 12.159 7 18.5 7 24.84 12.159 30 18.5 30 24.84 30 30 24.84 30 18.5 30 12.159 24.842 7 18.5 7zm5.13 8.868c.005.114.008.229.008.344 0 3.497-2.662 7.53-7.531 7.53a7.487 7.487 0 0 1-4.058-1.189 5.313 5.313 0 0 0 3.919-1.096 2.65 2.65 0 0 1-2.473-1.838 2.668 2.668 0 0 0 1.195-.045 2.647 2.647 0 0 1-2.123-2.595l.001-.034c.357.198.765.318 1.198.331a2.645 2.645 0 0 1-.819-3.534 7.516 7.516 0 0 0 5.456 2.767 2.647 2.647 0 0 1 4.51-2.415 5.283 5.283 0 0 0 1.682-.643 2.659 2.659 0 0 1-1.166 1.465 5.262 5.262 0 0 0 1.52-.416c-.353.53-.801.996-1.319 1.368z"/>
    </g>
</svg>
